<svg width="60" height="60" viewBox="0 0 60 60" fill="none" xmlns="http://www.w3.org/2000/svg">
<path d="M17.2695 54.7271L5.27338 42.7309C-1.75779 35.6996 -1.75779 24.3 5.27338 17.2695L17.2695 5.27405C24.3007 -1.75802 35.6993 -1.75802 42.7305 5.27405L54.7266 17.2695C61.7578 24.3 61.7578 35.6996 54.7266 42.7309L42.7305 54.7271C35.6993 61.7576 24.3007 61.7576 17.2695 54.7271Z" fill="#927CFF"/>
<path d="M48.9148 18.5231L47.8808 17.9123C47.2597 17.5419 46.538 17.4596 45.8885 17.6269C45.2386 17.7926 44.6464 18.2125 44.2782 18.8356L35.1086 34.3241C34.4631 35.6909 34.6673 39.9697 34.6117 40.1056L34.6204 41.4906L35.8374 40.8326C35.9304 40.7174 39.7811 38.8401 40.6675 37.6171L49.8382 22.1266C50.2068 21.5051 50.2891 20.7834 50.1221 20.1346C49.9563 19.4847 49.5371 18.8916 48.9148 18.5231ZM39.2386 36.7712C39.2852 36.8695 37.5438 37.9037 36.2906 38.6384C36.335 37.188 36.4285 35.1782 36.5371 35.1718L43.4897 23.4279L46.1913 25.0273L39.2386 36.7712ZM48.4086 21.2809L47.0378 23.5975L44.3354 21.9983L45.7072 19.6822C45.8457 19.4494 46.0581 19.2996 46.3008 19.2358C46.5434 19.1752 46.8017 19.2044 47.0359 19.3417L48.0681 19.9522C48.3011 20.0914 48.4494 20.3043 48.5132 20.5469C48.5742 20.7912 48.5463 21.0483 48.4086 21.2809Z" fill="white"/>
<path d="M17.4144 42.9444H34.62C35.0351 42.9444 35.0359 41.7495 34.62 41.7495H17.4144C16.9993 41.7495 16.9985 42.9444 17.4144 42.9444Z" fill="white"/>
</svg>
