<svg width="60" height="60" viewBox="0 0 60 60" fill="none" xmlns="http://www.w3.org/2000/svg">
<path d="M17.2695 54.7271L5.27338 42.7309C-1.75779 35.6996 -1.75779 24.3 5.27338 17.2695L17.2695 5.27405C24.3007 -1.75802 35.6993 -1.75802 42.7305 5.27405L54.7266 17.2695C61.7578 24.3 61.7578 35.6996 54.7266 42.7309L42.7305 54.7271C35.6993 61.7576 24.3007 61.7576 17.2695 54.7271Z" fill="#61E6A3"/>
<path d="M32.3658 26.7542C32.1077 27.2003 32.4279 27.7587 32.9441 27.7587H34.9092H35.8451C36.6536 27.7587 37.0328 28.7567 36.4306 29.2936L23.8435 40.5037C23.2915 40.9952 22.4941 40.291 22.9131 39.6816L29.1788 30.5849C29.4305 30.2192 29.1684 29.7214 28.7239 29.7214H25.9296C25.1928 29.7214 24.82 28.8324 25.337 28.3075L36.801 18.6938C37.3172 18.1704 38.1559 18.8101 37.7871 19.4457L32.3658 26.7542Z" fill="white"/>
</svg>
