<?xml version="1.0" encoding="UTF-8"?>
<svg width="72px" height="74px" viewBox="0 0 72 74" version="1.1" xmlns="http://www.w3.org/2000/svg" xmlns:xlink="http://www.w3.org/1999/xlink">
    <title>Line of credit_icon</title>
    <defs>
        <path d="M61.82,1.985 L53.56,10.473 C52.518,9.19 50.927,8.389 49.209,8.389 L49.209,8.389 L33.602,8.389 C31.381,7.46 29.025,6.99 26.593,6.99 L26.593,6.99 C19.855,6.99 13.969,10.101 10.809,15.939 L10.809,15.939 C9.48,15.687 8.076,16.089 7.066,17.099 L7.066,17.099 L0.408,23.777 C-0.135,24.323 -0.136,25.205 0.406,25.751 L0.406,25.751 L16.121,41.587 C16.663,42.134 17.547,42.139 18.097,41.597 L18.097,41.597 L24.882,34.913 C26.036,33.759 26.386,32.054 25.878,30.569 L25.878,30.569 L27.338,29.162 C28.124,28.403 29.159,27.984 30.252,27.984 L30.252,27.984 L48.859,27.984 C52.159,27.984 55.279,26.717 57.645,24.415 L57.645,24.415 C57.743,24.32 56.906,25.305 70.338,9.25 L70.338,9.25 C72.33,6.894 72.033,3.355 69.673,1.36 L69.673,1.36 C68.625,0.477 67.343,0.045 66.067,0.045 L66.067,0.045 C64.49,0.045 62.924,0.704 61.82,1.985 L61.82,1.985 Z M49.209,19.587 C52.296,19.587 54.807,17.075 54.807,13.988 L54.807,13.988 C54.807,13.741 54.789,13.497 54.758,13.256 L54.758,13.256 C62.747,5.044 63.874,3.89 63.922,3.832 L63.922,3.832 C64.919,2.655 66.69,2.506 67.868,3.499 L67.868,3.499 C69.047,4.496 69.197,6.265 68.196,7.449 L68.196,7.449 L55.643,22.457 C53.81,24.217 51.402,25.185 48.859,25.185 L48.859,25.185 L30.252,25.185 C28.429,25.185 26.703,25.882 25.394,27.147 L25.394,27.147 L24.204,28.295 L13.239,17.331 C15.802,12.524 20.611,9.79 26.592,9.79 L26.592,9.79 C28.736,9.79 30.809,10.221 32.754,11.072 L32.754,11.072 C32.93,11.149 33.122,11.189 33.315,11.189 L33.315,11.189 L49.209,11.189 C50.727,11.189 52.008,12.426 52.008,13.988 L52.008,13.988 C52.008,15.531 50.752,16.788 49.209,16.788 L49.209,16.788 L37.79,16.788 C37.016,16.788 36.39,17.414 36.39,18.187 L36.39,18.187 C36.39,18.96 37.016,19.587 37.79,19.587 L37.79,19.587 L49.209,19.587 Z M3.374,24.767 L9.047,19.077 C9.509,18.616 10.218,18.533 10.781,18.88 L10.781,18.88 C10.994,19.01 22.965,31.012 23.04,31.11 L23.04,31.11 C23.448,31.661 23.39,32.446 22.91,32.926 L22.91,32.926 L17.126,38.625 L3.374,24.767 Z" id="path-1"></path>
        <path d="M3.848,2.065 L3.848,4.264 C1.694,4.496 0.103,6.298 0.224,8.37 L0.224,8.37 C0.344,10.441 2.134,12.063 4.303,12.065 L4.303,12.065 L6.121,12.065 C6.874,12.065 7.484,12.649 7.484,13.369 L7.484,13.369 C7.484,14.09 6.874,14.674 6.121,14.674 L6.121,14.674 L3.394,14.674 C3.143,14.674 2.939,14.479 2.939,14.239 L2.939,14.239 C2.939,13.519 2.329,12.935 1.575,12.935 L1.575,12.935 C0.823,12.935 0.212,13.519 0.212,14.239 L0.212,14.239 C0.214,15.919 1.638,17.281 3.394,17.283 L3.394,17.283 L3.848,17.283 L3.848,19.457 C3.848,20.177 4.46,20.761 5.212,20.761 L5.212,20.761 C5.965,20.761 6.575,20.177 6.575,19.457 L6.575,19.457 L6.575,17.257 C8.731,17.025 10.321,15.223 10.201,13.152 L10.201,13.152 C10.08,11.081 8.29,9.46 6.121,9.456 L6.121,9.456 L4.303,9.456 C3.55,9.456 2.939,8.873 2.939,8.152 L2.939,8.152 C2.939,7.432 3.55,6.848 4.303,6.848 L4.303,6.848 L7.031,6.848 C7.281,6.848 7.484,7.042 7.484,7.283 L7.484,7.283 C7.484,8.004 8.095,8.588 8.849,8.588 L8.849,8.588 C9.602,8.588 10.212,8.004 10.212,7.283 L10.212,7.283 C10.21,5.602 8.787,4.241 7.031,4.239 L7.031,4.239 L6.575,4.239 L6.575,2.065 C6.575,1.345 5.965,0.761 5.212,0.761 L5.212,0.761 C4.46,0.761 3.848,1.345 3.848,2.065 L3.848,2.065 Z" id="path-3"></path>
    </defs>
    <g id="Page-1" stroke="none" stroke-width="1" fill="none" fill-rule="evenodd">
        <g id="Flex-Pay-02" transform="translate(-119.000000, -2034.000000)">
            <g id="bill-pay" transform="translate(100.000000, 2009.000000)">
                <g id="Line-of-credit_icon" transform="translate(19.000000, 25.000000)">
                    <g id="Group-3" transform="translate(0.000000, 30.574900)">
                        <mask id="mask-2" fill="white">
                            <use xlink:href="#path-1"></use>
                        </mask>
                        <g id="Clip-2"></g>
                        <polygon id="Fill-1" fill="#000000" mask="url(#mask-2)" points="-5 47 76.657 47 76.657 -4.955 -5 -4.955"></polygon>
                    </g>
                    <path d="M50.5871,17.3362 C50.5871,25.2622 44.1391,31.7112 36.2121,31.7112 C28.2851,31.7112 21.8371,25.2622 21.8371,17.3362 C21.8471,9.4192 28.2941,2.9702 36.2121,2.9612 C44.1391,2.9612 50.5871,9.4092 50.5871,17.3362 M36.2121,0.0862 C26.7001,0.0862 18.9621,7.8242 18.9621,17.3362 C18.9731,26.8372 26.7111,34.5752 36.2111,34.5862 L36.2121,34.5862 C45.7241,34.5862 53.4621,26.8482 53.4621,17.3362 C53.4621,7.8242 45.7241,0.0862 36.2121,0.0862" id="Fill-4" fill="#000000"></path>
                    <g id="Group-8" transform="translate(31.000000, 6.574900)">
                        <mask id="mask-4" fill="white">
                            <use xlink:href="#path-3"></use>
                        </mask>
                        <g id="Clip-7"></g>
                        <polygon id="Fill-6" fill="#000000" mask="url(#mask-4)" points="-4.788 25.761 15.212 25.761 15.212 -4.239 -4.788 -4.239"></polygon>
                    </g>
                </g>
            </g>
        </g>
    </g>
</svg>