<?xml version="1.0" encoding="UTF-8"?>
<svg width="76px" height="76px" viewBox="0 0 76 76" version="1.1" xmlns="http://www.w3.org/2000/svg" xmlns:xlink="http://www.w3.org/1999/xlink">
    <title>4</title>
    <g id="4" stroke="none" stroke-width="1" fill="none" fill-rule="evenodd">
        <g id="payroll-icon" transform="translate(8.000000, 10.000000)" fill="#1D1D1B">
            <path d="M25.7413272,45 L34.2587245,45 C34.7181121,45 35.1672048,44.8401515 35.4907937,44.5613636 C35.8144343,44.2826649 36,43.8958556 36,43.5000446 C36,43.1042335 35.8143826,42.7173351 35.4907937,42.4385918 C35.1672048,42.159893 34.7181121,42 34.2587245,42 L25.7413272,42 C24.7811141,42 24,42.672861 24,43.5 C24,44.3270945 24.7811141,45 25.7413272,45" id="Fill-1"></path>
            <path d="M10.7413272,29 L19.2587245,29 C19.7181121,29 20.1672048,28.8401515 20.4907937,28.5613636 C20.8144343,28.2826203 21,27.8958111 21,27.5 C21,27.1041889 20.8144343,26.7173351 20.4907937,26.4385918 C20.1672566,26.1598485 19.7181638,26 19.2587245,26 L10.7413272,26 C9.78111407,26 9,26.672861 9,27.5 C9,28.3270945 9.78111407,29 10.7413272,29" id="Fill-3"></path>
            <path d="M10.7413272,37 L19.2587245,37 C19.7180604,37 20.1672048,36.8401093 20.4907937,36.5613702 C20.8144343,36.282631 21,35.8958275 21,35.5000223 C21,35.1042171 20.8144343,34.717369 20.4907937,34.4386298 C20.1672048,34.1598907 19.7181121,34 19.2587245,34 L10.7413272,34 C9.78111407,34 9,34.6728955 9,35.5000223 C9,36.3271045 9.78111407,37 10.7413272,37" id="Fill-5"></path>
            <path d="M10.7413272,45 L19.2587245,45 C19.7181121,45 20.1672048,44.8401515 20.4907937,44.5613636 C20.8144343,44.2826649 21,43.8958556 21,43.5000446 C21,43.1042335 20.8144343,42.7173351 20.4907937,42.4385918 C20.1672048,42.159893 19.7181121,42 19.2587245,42 L10.7413272,42 C9.78111407,42 9,42.672861 9,43.5 C9,44.3270945 9.78111407,45 10.7413272,45" id="Fill-7"></path>
            <path d="M25.7413272,37 L34.2587245,37 C34.7181121,37 35.1672048,36.8401093 35.4907937,36.5613702 C35.8144343,36.282631 36,35.8958275 36,35.5000223 C36,35.1042171 35.8143826,34.717369 35.4907937,34.4386298 C35.1672048,34.1598907 34.7181121,34 34.2587245,34 L25.7413272,34 C24.7811141,34 24,34.6728955 24,35.5000223 C24,36.3271045 24.7811141,37 25.7413272,37" id="Fill-9"></path>
            <path d="M40.7413197,29 L49.2586803,29 C49.7181176,29 50.1672084,28.8401515 50.4907442,28.5614082 C50.8143834,28.2826203 51,27.8957665 51,27.5 C51,27.1042335 50.8143834,26.7173351 50.4907442,26.4385918 C50.1672084,26.1598485 49.7181176,26 49.2586803,26 L40.7413197,26 C39.7811107,26 39,26.672861 39,27.5 C39,28.3270945 39.7811107,29 40.7413197,29" id="Fill-11"></path>
            <path d="M40.7413197,37 L49.2586803,37 C49.7180659,37 50.1671567,36.8401093 50.4907442,36.5613702 C50.8143834,36.2825864 51,35.8957829 51,35.5000223 C51,35.1042617 50.8143834,34.717369 50.4907442,34.4386298 C50.1671567,34.1598907 49.7180659,34 49.2586803,34 L40.7413197,34 C39.7811107,34 39,34.6728955 39,35.5000223 C39,36.3271045 39.7811107,37 40.7413197,37" id="Fill-13"></path>
            <path d="M40.7413197,45 L49.2586803,45 C49.7181176,45 50.1672084,44.8401515 50.4907442,44.5614082 C50.8143834,44.2826203 51,43.8958111 51,43.5000446 C51,43.1042335 50.8143834,42.7173351 50.4907442,42.4385918 C50.1671567,42.159893 49.7180659,42 49.2586803,42 L40.7413197,42 C39.7811107,42 39,42.672861 39,43.5 C39,44.3270945 39.7811107,45 40.7413197,45" id="Fill-15"></path>
            <path d="M25.7413272,29 L34.2587245,29 C34.7181121,29 35.1672048,28.8401515 35.4907937,28.5613636 C35.8143826,28.2826203 36,27.8958111 36,27.5 C36,27.1041889 35.8143826,26.7173351 35.4907937,26.4385918 C35.1672566,26.1598485 34.7181638,26 34.2587245,26 L25.7413272,26 C24.7811141,26 24,26.672861 24,27.5 C24,28.3270945 24.7811141,29 25.7413272,29" id="Fill-17"></path>
            <g id="Group-21">
                <path d="M56.037888,15.8301072 L3.52512,15.8301072 L3.52512,7.2073392 L15.0871156,7.2073392 L15.0871156,9.5430672 C15.0871156,10.4339472 15.8778065,11.1587472 16.8496756,11.1587472 C17.8215971,11.1587472 18.6122356,10.4339472 18.6122356,9.5430672 L18.6122356,7.2073392 L28.018944,7.2073392 L28.018944,9.5430672 C28.018944,10.4339472 28.8096349,11.1587472 29.781504,11.1587472 C30.7534255,11.1587472 31.544064,10.4339472 31.544064,9.5430672 L31.544064,7.2073392 L40.9507724,7.2073392 L40.9507724,9.5430672 C40.9507724,10.4339472 41.7414633,11.1587472 42.7133324,11.1587472 C43.6852538,11.1587472 44.4758924,10.4339472 44.4758924,9.5430672 L44.4758924,7.2073392 L56.037888,7.2073392 L56.037888,15.8301072 Z M3.52512,51.3926352 L56.037888,51.3926352 L56.037888,19.0615632 L3.52512,19.0615632 L3.52512,51.3926352 Z M57.800448,3.9759792 L57.800448,3.9759312 L44.4758924,3.9759312 L44.4758924,1.6402512 C44.4758924,0.7493232 43.6852538,0.0245712 42.7133324,0.0245712 C41.7414633,0.0245712 40.9507724,0.7493232 40.9507724,1.6402512 L40.9507724,3.9759312 L31.544064,3.9759312 L31.544064,1.6402512 C31.544064,0.7493232 30.7534255,0.0245712 29.781504,0.0245712 C28.8096349,0.0245712 28.018944,0.7493232 28.018944,1.6402512 L28.018944,3.9759312 L18.6122356,3.9759312 L18.6122356,1.6402512 C18.6122356,0.7493232 17.8215971,0.0245712 16.8496756,0.0245712 C15.8778065,0.0245712 15.0871156,0.7493232 15.0871156,1.6402512 L15.0871156,3.9759312 L1.76256,3.9759312 C0.790690909,3.9759312 0,4.7007792 0,5.5916592 L0,53.0083632 C0,53.4346992 0.187828364,53.8513392 0.515362909,54.1515312 C0.842949818,54.4517712 1.29746618,54.6239952 1.76250764,54.6239952 L57.800448,54.6239952 C58.2655418,54.6239952 58.7201105,54.4518192 59.0475927,54.1515792 C59.3750749,53.8512912 59.5629556,53.4346512 59.5629556,53.0083632 L59.5629556,5.5916592 C59.5629556,5.1653232 59.3750749,4.7486832 59.0475927,4.4484432 C58.7200582,4.1481552 58.2654895,3.9759792 57.800448,3.9759792 L57.800448,3.9759792 Z" id="Fill-19"></path>
            </g>
        </g>
    </g>
</svg>