<svg width="100" height="100" xmlns="http://www.w3.org/2000/svg" fill="none">

 <g>
  <title>Layer 1</title>
  <path id="svg_1" fill="black" d="m72.7127,22.9799c0,-3.9816 3.2233,-7.208 7.2013,-7.208c3.979,0 7.202,3.2264 7.202,7.208c0,3.9721 -3.226,7.1956 -7.202,7.1956c-3.975,0 -7.2013,-3.2235 -7.2013,-7.1956zm7.2013,-3.438c-1.893,0 -3.431,1.5356 -3.431,3.438c0,1.8871 1.535,3.4256 3.431,3.4256c1.897,0 3.432,-1.5385 3.432,-3.4256c0,-1.9024 -1.538,-3.438 -3.432,-3.438z" clip-rule="evenodd" fill-rule="evenodd"/>
  <path id="svg_2" fill="black" d="m98.466,4.4234c0.736,0.7362 0.736,1.9297 0,2.6658l-2.982,2.9813c0.026,0.1503 0.055,0.3154 0.085,0.4935c0.155,0.8964 0.364,2.1236 0.584,3.4462c0.436,2.6229 0.927,5.6905 1.105,7.2638l0.003,0.0321l0.004,0.0426c0.388,5.3062 -1.833,10.4646 -5.954,13.8325c-0.057,0.0463 -0.116,0.0893 -0.178,0.1287l-17.6817,11.2993c1.7877,4.198 0.8632,9.0831 -2.3925,12.3388l-4.6436,4.6374c-1.6488,1.6477 -4.3225,1.6418 -5.971,0.0045l-0.019,-0.0188c-0.5115,-0.5226 -0.8948,-1.1895 -1.0854,-1.9068l-0.0056,-0.0211l-1.8231,-7.1999l-9.0893,-9.072l-7.1704,-1.8172l-0.0071,-0.0018c-0.7266,-0.1872 -1.4041,-0.5647 -1.9457,-1.1142c-1.6455,-1.6443 -1.6359,-4.3242 0.0047,-5.9647l4.6426,-4.6365c3.2503,-3.2631 8.1375,-4.1943 12.3424,-2.3989l11.2917,-17.6804c0.0394,-0.0617 0.0824,-0.1211 0.1287,-0.1778c3.3602,-4.1139 8.5183,-6.3492 13.8353,-5.9544c0.024,0.0018 0.048,0.0041 0.072,0.0068c1.573,0.178 4.638,0.6671 7.26,1.1019c1.322,0.2193 2.548,0.4277 3.444,0.5813c0.181,0.0311 0.349,0.06 0.502,0.0862l2.978,-2.9782c0.736,-0.7361 1.929,-0.7361 2.666,0zm-41.0885,30.3134l-5.5565,8.7003l7.648,7.6334l8.6894,-5.5529l-10.7809,-10.7808zm14.0337,8.7021l-11.9557,-11.9558l11.2406,-17.6004c2.5798,-3.1049 6.4979,-4.7883 10.5329,-4.5002c1.469,0.1685 4.404,0.6351 7.03,1.0708c1.313,0.2178 2.533,0.4251 3.424,0.5779l0.146,0.025l0.025,0.1469c0.153,0.8918 0.361,2.1119 0.58,3.4258c0.437,2.6275 0.905,5.5622 1.074,7.0312c0.282,4.0326 -1.392,7.9501 -4.501,10.5343l-17.5958,11.2445zm-10.04,10.89l1.614,6.3738c0.0212,0.0751 0.069,0.1606 0.1254,0.2218c0.1842,0.1727 0.4704,0.1635 0.6388,-0.0049l4.6436,-4.6374c2.0098,-2.0105 2.6829,-4.9546 1.814,-7.5998l-8.8358,5.6465zm-7.1545,-21.6471l-5.6447,8.8384l-6.3896,-1.6193c-0.0908,-0.0238 -0.1568,-0.0667 -0.1993,-0.11l-0.0186,-0.0186c-0.1652,-0.164 -0.1716,-0.4567 0.0046,-0.6331l4.6427,-4.6365l0.0038,-0.0039c2.0066,-2.0155 4.9512,-2.6919 7.6011,-1.817z" clip-rule="evenodd" fill-rule="evenodd"/>
  <path id="svg_3" fill="black" d="m36.2157,53.5434c2.8605,-3.7098 8.2081,-4.4061 11.9253,-1.5381l0.0058,0.0045c0.5033,0.3914 0.9698,0.8381 1.3847,1.3414c3.5497,2.9049 4.1693,8.126 1.358,11.78l-0.0061,0.0078c-0.4451,0.5723 -0.9613,1.0885 -1.5336,1.5336l-0.0188,0.0145c-4.3996,3.3341 -9.9731,4.7218 -15.4154,3.8559c-0.8047,-0.128 -1.4361,-0.7585 -1.5651,-1.5631c-0.8731,-5.4451 0.5223,-11.0253 3.8556,-15.4239l0.0096,-0.0126zm2.9901,2.2962c-2.4237,3.2016 -3.5862,7.1722 -3.2961,11.1422c3.9696,0.2871 7.9342,-0.8706 11.1344,-3.2919c0.3204,-0.2504 0.6104,-0.5408 0.8604,-0.8615c1.5873,-2.0674 1.2046,-5.0414 -0.8655,-6.6431c-0.125,-0.0967 -0.2374,-0.2088 -0.3344,-0.3336c-0.2463,-0.3166 -0.5375,-0.6052 -0.8694,-0.8638c-2.065,-1.5907 -5.0391,-1.2042 -6.6294,0.8517z" clip-rule="evenodd" fill-rule="evenodd"/>
  <path id="svg_4" fill="black" d="m98.466,7.0892l0.141,0.1415l0,0l-0.141,-0.1415zm-2.982,2.9813l-0.141,-0.1414c-0.046,0.046 -0.067,0.1114 -0.056,0.1755l0.197,-0.0341zm0.085,0.4935l-0.197,0.0339l0,0l0.197,-0.0339zm0.584,3.4462l0.197,-0.0328l0,0l-0.197,0.0328zm1.105,7.2638l0.199,-0.0207l0,-0.0017l-0.199,0.0224zm0.003,0.0321l0.2,-0.0169l-0.001,-0.0039l-0.199,0.0208zm0.004,0.0426l0.199,-0.0146l0,-0.0022l-0.199,0.0168zm-5.954,13.8325l0.126,0.1549l0,0l-0.126,-0.1549zm-0.178,0.1287l-0.108,-0.1685l0,0l0.108,0.1685zm-17.6817,11.2993l-0.1077,-0.1685c-0.0823,0.0526 -0.1146,0.157 -0.0763,0.2469l0.184,-0.0784zm-2.3925,12.3388l0.1413,0.1415l0.0001,-0.0001l-0.1414,-0.1414zm-4.6436,4.6374l-0.1414,-0.1415l0,0l0.1414,0.1415zm-5.971,0.0045l0.1409,-0.1419l0,0l-0.1409,0.1419zm-0.019,-0.0188l-0.1429,0.1399l0.002,0.002l0.1409,-0.1419zm-1.0854,-1.9068l0.1933,-0.0513l0,0l-0.1933,0.0513zm-0.0056,-0.0211l-0.1939,0.049l0.0006,0.0023l0.1933,-0.0513zm-1.8231,-7.1999l0.1939,-0.0491c-0.0088,-0.035 -0.027,-0.067 -0.0526,-0.0925l-0.1413,0.1416zm-9.0893,-9.072l0.1412,-0.1416c-0.0254,-0.0254 -0.0572,-0.0434 -0.0921,-0.0523l-0.0491,0.1939zm-7.1704,-1.8172l-0.0495,0.1938l0.0004,0.0001l0.0491,-0.1939zm-0.0071,-0.0018l-0.0499,0.1937l0.0004,0.0001l0.0495,-0.1938zm-1.9457,-1.1142l0.1425,-0.1404l-0.0011,-0.0011l-0.1414,0.1415zm0.0047,-5.9647l-0.1414,-0.1415l-0.0001,0.0001l0.1415,0.1414zm4.6426,-4.6365l0.1414,0.1416l0.0003,-0.0004l-0.1417,-0.1412zm12.3424,-2.3989l-0.0785,0.184c0.0899,0.0384 0.1945,0.0061 0.2471,-0.0763l-0.1686,-0.1077zm11.2917,-17.6804l-0.1685,-0.1077l0,0l0.1685,0.1077zm0.1287,-0.1778l-0.1548,-0.1266l0,0l0.1548,0.1266zm13.8353,-5.9544l-0.015,0.1995l0,0l0.015,-0.1995zm0.072,0.0068l-0.022,0.1987l0,0l0.022,-0.1987zm7.26,1.1019l0.033,-0.1973l0,0l-0.033,0.1973zm3.444,0.5813l0.034,-0.1971l0,0l-0.034,0.1971zm0.502,0.0862l-0.034,0.1971c0.064,0.011 0.129,-0.0097 0.175,-0.0557l-0.141,-0.1414zm2.978,-2.9782l-0.142,-0.1414l0,0l0.142,0.1414zm-38.4225,30.3134l0.1415,-0.1415c-0.0429,-0.0428 -0.1029,-0.0639 -0.1631,-0.0574c-0.0603,0.0066 -0.1143,0.0401 -0.1469,0.0912l0.1685,0.1077zm-5.5565,8.7003l-0.1685,-0.1076c-0.0506,0.0791 -0.0392,0.1828 0.0272,0.2492l0.1413,-0.1416zm7.648,7.6334l-0.1413,0.1415c0.0664,0.0663 0.1699,0.0775 0.249,0.027l-0.1077,-0.1685zm8.6894,-5.5529l0.1077,0.1685c0.051,-0.0326 0.0845,-0.0866 0.0911,-0.1469c0.0066,-0.0602 -0.0146,-0.1202 -0.0574,-0.163l-0.1414,0.1414zm3.2528,-2.0787l-0.1414,0.1414c0.0664,0.0664 0.17,0.0777 0.2491,0.0271l-0.1077,-0.1685zm-11.9557,-11.9558l-0.1686,-0.1076c-0.0505,0.0791 -0.0392,0.1827 0.0272,0.249l0.1414,-0.1414zm11.2406,-17.6004l-0.1539,-0.1278c-0.0053,0.0064 -0.0102,0.0131 -0.0147,0.0202l0.1686,0.1076zm10.5329,-4.5002l0.023,-0.1989l-0.009,-0.0006l-0.014,0.1995zm7.03,1.0708l0.033,-0.1973l0,0l-0.033,0.1973zm3.424,0.5779l0.034,-0.1972l0,0l-0.034,0.1972zm0.146,0.025l0.197,-0.0339c-0.015,-0.0835 -0.08,-0.1489 -0.164,-0.1632l-0.033,0.1971zm0.025,0.1469l0.197,-0.0339l0,0l-0.197,0.0339zm0.58,3.4258l-0.197,0.0328l0,0l0.197,-0.0328zm1.074,7.0312l0.199,-0.014l-0.001,-0.0088l-0.198,0.0228zm-4.501,10.5343l0.108,0.1685c0.007,-0.0045 0.014,-0.0094 0.02,-0.0147l-0.128,-0.1538zm-26.0218,28.5083l-0.194,0.0491l0.0015,0.0053l0.1925,-0.0544zm-1.614,-6.3738l-0.1077,-0.1685c-0.0726,0.0464 -0.1074,0.1341 -0.0862,0.2176l0.1939,-0.0491zm1.7394,6.5956l-0.147,0.1355c0.0033,0.0036 0.0067,0.007 0.0102,0.0104l0.1368,-0.1459zm0.6388,-0.0049l-0.1414,-0.1415l-0.0001,0.0001l0.1415,0.1414zm4.6436,-4.6374l0.1413,0.1415l0.0001,-0.0001l-0.1414,-0.1414zm1.814,-7.5998l0.1901,-0.0624c-0.0193,-0.0587 -0.0647,-0.1052 -0.1229,-0.1259c-0.0582,-0.0208 -0.1228,-0.0135 -0.1748,0.0198l0.1076,0.1685zm-21.635,-7.1622l-0.0491,0.1939c0.0835,0.0211 0.1713,-0.0136 0.2177,-0.0863l-0.1686,-0.1076zm5.6447,-8.8384l0.1685,0.1077c0.0332,-0.052 0.0406,-0.1165 0.0199,-0.1747c-0.0207,-0.0582 -0.0671,-0.1035 -0.1257,-0.1229l-0.0627,0.1899zm-12.0343,7.2191l-0.0507,0.1934l0.0016,0.0004l0.0491,-0.1938zm-0.1993,-0.11l0.143,-0.14l-0.002,-0.0019l-0.141,0.1419zm-0.0186,-0.0186l-0.141,0.1419l0,0l0.141,-0.1419zm0.0046,-0.6331l-0.1414,-0.1416l-0.0002,0.0003l0.1416,0.1413zm4.6427,-4.6365l0.1413,0.1415l0.0005,-0.0005l-0.1418,-0.141zm0.0038,-0.0039l-0.1417,-0.1411l0,0l0.1417,0.1411zm1.5254,17.5065l0.1222,-0.1584l0,0l-0.1222,0.1584zm-11.9253,1.5381l-0.1584,-0.1221l-0.0005,0.0007l0.1589,0.1214zm11.9311,-1.5336l0.1228,-0.1579l-0.0006,-0.0005l-0.1222,0.1584zm1.3847,1.3414l-0.1543,0.1272c0.0083,0.0101 0.0175,0.0193 0.0276,0.0276l0.1267,-0.1548zm1.358,11.78l0.1582,0.1223l0.0003,-0.0004l-0.1585,-0.1219zm-0.0061,0.0078l0.1579,0.1228l0.0003,-0.0004l-0.1582,-0.1224zm-1.5336,1.5336l0.1218,0.1587l0.001,-0.0008l-0.1228,-0.1579zm-0.0188,0.0145l0.1208,0.1594l0.001,-0.0008l-0.1218,-0.1586zm-15.4154,3.8559l-0.0314,0.1976l0,0l0.0314,-0.1976zm-1.5651,-1.5631l-0.1975,0.0317l0,0l0.1975,-0.0317zm3.8556,-15.4239l-0.1588,-0.1215l-0.0006,0.0007l0.1594,0.1208zm-0.2964,13.4258l-0.1994,0.0146c0.0072,0.099 0.086,0.1777 0.185,0.1849l0.0144,-0.1995zm3.2961,-11.1422l-0.1582,-0.1224l-0.0012,0.0016l0.1594,0.1208zm7.8383,7.8503l0.1207,0.1595l0.0024,-0.0019l-0.1231,-0.1576zm0.8604,-0.8615l0.1578,0.1229l0.0009,-0.0012l-0.1587,-0.1217zm-0.8655,-6.6431l0.1224,-0.1582l0,0l-0.1224,0.1582zm-0.3344,-0.3336l0.1579,-0.1228l0,0l-0.1579,0.1228zm-0.8694,-0.8638l0.1229,-0.1578l-0.0009,-0.0006l-0.122,0.1584zm52.7718,-47.7572c0.814,-0.8143 0.814,-2.1344 0,-2.9487l-0.283,0.2829c0.658,0.658 0.658,1.7249 0,2.3829l0.283,0.2829zm-2.981,2.9812l2.981,-2.9812l-0.283,-0.2829l-2.981,2.9813l0.283,0.2828zm0.14,0.3182c-0.03,-0.1782 -0.059,-0.3434 -0.085,-0.4936l-0.394,0.0681c0.026,0.1502 0.055,0.3152 0.085,0.4933l0.394,-0.0678zm0.584,3.4473c-0.22,-1.3231 -0.429,-2.5507 -0.584,-3.4473l-0.394,0.0678c0.154,0.8961 0.364,2.1229 0.584,3.4451l0.394,-0.0656zm1.107,7.2742c-0.179,-1.5797 -0.671,-4.6527 -1.107,-7.2742l-0.394,0.0656c0.436,2.6244 0.926,5.6864 1.103,7.2535l0.398,-0.0449zm0.003,0.0337l-0.003,-0.032l-0.398,0.0415l0.003,0.0321l0.398,-0.0416zm0.004,0.0466l-0.003,-0.0427l-0.399,0.0337l0.004,0.0426l0.398,-0.0336zm-6.027,14.0042c4.172,-3.4091 6.42,-8.6308 6.027,-14.002l-0.399,0.0292c0.383,5.2411 -1.809,10.3364 -5.881,13.663l0.253,0.3098zm-0.196,0.1423c0.068,-0.0436 0.134,-0.0911 0.196,-0.1423l-0.253,-0.3098c-0.051,0.0414 -0.104,0.0798 -0.159,0.1151l0.216,0.337zm-17.682,11.2994l17.682,-11.2994l-0.216,-0.337l-17.6814,11.2993l0.2154,0.3371zm-2.3588,12.3116c3.3136,-3.3136 4.2548,-8.2858 2.4351,-12.5585l-0.368,0.1567c1.7557,4.1232 0.8478,8.9212 -2.3499,12.119l0.2828,0.2828zm-4.6437,4.6375l4.6436,-4.6374l-0.2826,-0.283l-4.6437,4.6374l0.2827,0.283zm-6.2533,0.0049c1.7263,1.7145 4.5262,1.7211 6.2533,-0.005l-0.2827,-0.2829c-1.5704,1.5695 -4.1179,1.5642 -5.6887,0.0041l-0.2819,0.2838zm-0.0189,-0.0188l0.0189,0.0188l0.2819,-0.2838l-0.019,-0.0188l-0.2818,0.2838zm-1.1378,-1.9973c0.1995,0.751 0.6004,1.4483 1.1358,1.9953l0.2858,-0.2798c-0.4876,-0.4982 -0.8534,-1.1347 -1.035,-1.8182l-0.3866,0.1027zm-0.0056,-0.0212l0.0056,0.0212l0.3866,-0.1027l-0.0056,-0.0212l-0.3866,0.1027zm-1.8236,-7.2021l1.823,7.1998l0.3878,-0.0981l-1.8231,-7.1999l-0.3877,0.0982zm-9.0368,-8.9796l9.0894,9.072l0.2825,-0.2831l-9.0894,-9.072l-0.2825,0.2831zm-7.0782,-1.7648l7.1703,1.8172l0.0983,-0.3878l-7.1704,-1.8172l-0.0982,0.3878zm-0.0075,-0.0019l0.0071,0.0018l0.099,-0.3876l-0.0071,-0.0018l-0.099,0.3876zm-2.0386,-1.1676c0.5681,0.5764 1.278,0.9716 2.0382,1.1675l0.0998,-0.3874c-0.6929,-0.1785 -1.338,-0.5382 -1.8531,-1.0609l-0.2849,0.2808zm0.0056,-6.2465c-1.7182,1.7182 -1.7287,4.5247 -0.0045,6.2476l0.2827,-0.283c-1.5669,-1.5657 -1.5582,-4.1189 0.0047,-5.6818l-0.2829,-0.2828zm4.6428,-4.6366l-4.6427,4.6365l0.2827,0.283l4.6427,-4.6364l-0.2827,-0.2831zm12.5623,-2.4413c-4.2799,-1.8274 -9.2544,-0.8796 -12.5627,2.4417l0.2834,0.2823c3.1924,-3.2049 7.9922,-4.1195 12.1222,-2.3561l0.1571,-0.3679zm11.0446,-17.6042l-11.2917,17.6805l0.3371,0.2153l11.2917,-17.6805l-0.3371,-0.2153zm0.1424,-0.1967c-0.0513,0.0628 -0.0988,0.1285 -0.1424,0.1967l0.3371,0.2153c0.0352,-0.0551 0.0736,-0.1082 0.115,-0.1589l-0.3097,-0.2531zm14.0051,-6.0272c-5.382,-0.3997 -10.604,1.8631 -14.0051,6.0272l0.3097,0.2531c3.3191,-4.0636 8.4144,-6.2714 13.6654,-5.8814l0.03,-0.3989zm0.08,0.0075c-0.027,-0.003 -0.054,-0.0055 -0.08,-0.0075l-0.03,0.3989c0.022,0.0016 0.043,0.0036 0.065,0.006l0.045,-0.3974zm7.27,1.1033c-2.62,-0.4346 -5.691,-0.9246 -7.27,-1.1033l-0.045,0.3974c1.566,0.1773 4.626,0.6654 7.249,1.1005l0.066,-0.3946zm3.445,0.5815c-0.896,-0.1537 -2.123,-0.3622 -3.445,-0.5815l-0.066,0.3946c1.322,0.2192 2.548,0.4276 3.443,0.5811l0.068,-0.3942zm0.502,0.0862c-0.153,-0.0262 -0.321,-0.0551 -0.502,-0.0862l-0.068,0.3942c0.181,0.0311 0.349,0.06 0.502,0.0862l0.068,-0.3942zm2.802,-2.9225l-2.978,2.9782l0.283,0.2828l2.978,-2.9781l-0.283,-0.2829zm2.949,0c-0.814,-0.8142 -2.134,-0.8142 -2.949,0l0.283,0.2829c0.658,-0.6581 1.725,-0.6581 2.383,0l0.283,-0.2829zm-41.398,30.3471l-5.5565,8.7004l0.3371,0.2152l5.5565,-8.7003l-0.3371,-0.2153zm-5.5293,8.9496l7.648,7.6333l0.2826,-0.2831l-7.648,-7.6334l-0.2826,0.2832zm7.897,7.6603l8.6894,-5.5529l-0.2154,-0.337l-8.6894,5.5528l0.2154,0.3371zm-2.3406,-16.3608l10.7809,10.7808l0.2828,-0.2828l-10.7808,-10.7809l-0.2829,0.2829zm14.3166,8.4193l-11.9558,-11.9558l-0.2828,0.2828l11.9557,11.9558l0.2829,-0.2828zm-1.0252,-29.5224l-11.2406,17.6004l0.3371,0.2153l11.2406,-17.6005l-0.3371,-0.2152zm10.7155,-4.5921c-4.1,-0.2928 -8.08,1.4177 -10.7008,4.5719l0.3077,0.2556c2.5389,-3.0556 6.3941,-4.712 10.3651,-4.4285l0.028,-0.399zm7.049,1.073c-2.625,-0.4355 -5.565,-0.9031 -7.04,-1.0722l-0.046,0.3974c1.463,0.1678 4.393,0.6335 7.02,1.0694l0.066,-0.3946zm3.425,0.578c-0.892,-0.1528 -2.112,-0.3601 -3.425,-0.578l-0.066,0.3946c1.313,0.2177 2.532,0.4249 3.423,0.5777l0.068,-0.3943zm0.145,0.0251l-0.145,-0.0251l-0.068,0.3943l0.146,0.025l0.067,-0.3942zm0.189,0.3101l-0.025,-0.1469l-0.394,0.0678l0.025,0.1469l0.394,-0.0678zm0.58,3.4269c-0.218,-1.3144 -0.427,-2.5349 -0.58,-3.4269l-0.394,0.0678c0.153,0.8915 0.361,2.1112 0.58,3.4247l0.394,-0.0656zm1.075,7.0412c-0.169,-1.475 -0.638,-4.4151 -1.075,-7.0412l-0.394,0.0656c0.437,2.6288 0.904,5.5583 1.072,7.0212l0.397,-0.0456zm-4.571,10.7109c3.158,-2.6253 4.859,-6.6052 4.572,-10.7021l-0.399,0.028c0.278,3.9684 -1.369,7.8234 -4.429,10.3665l0.256,0.3076zm-17.6161,11.2592l17.5961,-11.2445l-0.216,-0.337l-17.5954,11.2444l0.2153,0.3371zm-8.3398,17.0462l-1.614,-6.3738l-0.3878,0.0982l1.614,6.3738l0.3878,-0.0982zm0.0786,0.1353c-0.0357,-0.0387 -0.0676,-0.0965 -0.0801,-0.1407l-0.3849,0.1089c0.0301,0.1061 0.0937,0.2192 0.1709,0.3029l0.2941,-0.2711zm0.3502,-0.0107c-0.0918,0.0918 -0.2548,0.0995 -0.3605,0.0004l-0.2736,0.2918c0.2627,0.2464 0.6721,0.2355 0.917,-0.0094l-0.2829,-0.2828zm4.6438,-4.6375l-4.6437,4.6374l0.2827,0.283l4.6436,-4.6374l-0.2826,-0.283zm1.7653,-7.3958c0.8456,2.5741 0.1905,5.4392 -1.7655,7.3959l0.2829,0.2828c2.0637,-2.0644 2.7548,-5.0875 1.8627,-7.8036l-0.3801,0.1249zm-8.5381,5.7525l8.8358,-5.6464l-0.2153,-0.3371l-8.8359,5.6465l0.2154,0.337zm-12.7383,-12.8696l5.6446,-8.8383l-0.3371,-0.2153l-5.6446,8.8383l0.3371,0.2153zm-6.6073,-1.5331l6.3896,1.6194l0.0983,-0.3878l-6.3896,-1.6193l-0.0983,0.3877zm-0.2931,-0.1639c0.0685,0.0699 0.1666,0.1308 0.2915,0.1635l0.1014,-0.3869c-0.0567,-0.0149 -0.0906,-0.0397 -0.107,-0.0565l-0.2859,0.2799zm-0.0167,-0.0166l0.0187,0.0186l0.2819,-0.2838l-0.0187,-0.0186l-0.2819,0.2838zm0.004,-0.9163c-0.2543,0.2547 -0.2477,0.6743 -0.004,0.9163l0.2819,-0.2838c-0.0866,-0.086 -0.0928,-0.2518 0.0052,-0.3499l-0.2831,-0.2826zm4.643,-4.6368l-4.6428,4.6365l0.2827,0.2831l4.6427,-4.6365l-0.2826,-0.2831zm0.0034,-0.0034l-0.0039,0.0039l0.2836,0.2821l0.0038,-0.0038l-0.2835,-0.2822zm7.8055,-1.8658c-2.7211,-0.8985 -5.745,-0.2038 -7.8055,1.8658l0.2835,0.2822c1.9527,-1.9613 4.818,-2.6196 7.3965,-1.7681l0.1255,-0.3799zm25.6346,-16.92c-4.088,0 -7.4013,3.3161 -7.4013,7.408l0.4,0c0,-3.8713 3.1343,-7.008 7.0013,-7.008l0,-0.4zm7.402,7.408c0,-4.0919 -3.313,-7.408 -7.402,-7.408l0,0.4c3.868,0 7.002,3.1367 7.002,7.008l0.4,0zm-7.402,7.3956c4.086,0 7.402,-3.3129 7.402,-7.3956l-0.4,0c0,3.8614 -3.136,6.9956 -7.002,6.9956l0,0.4zm-7.4013,-7.3956c0,4.0827 3.3163,7.3956 7.4013,7.3956l0,-0.4c-3.865,0 -7.0013,-3.1342 -7.0013,-6.9956l-0.4,0zm4.1703,0c0,-1.792 1.449,-3.238 3.231,-3.238l0,-0.4c-2.003,0 -3.631,1.6253 -3.631,3.638l0.4,0zm3.231,3.2256c-1.785,0 -3.231,-1.4491 -3.231,-3.2256l-0.4,0c0,1.9977 1.625,3.6256 3.631,3.6256l0,-0.4zm3.232,-3.2256c0,1.7765 -1.446,3.2256 -3.232,3.2256l0,0.4c2.007,0 3.632,-1.6279 3.632,-3.6256l-0.4,0zm-3.232,-3.238c1.783,0 3.232,1.446 3.232,3.238l0.4,0c0,-2.0127 -1.628,-3.638 -3.632,-3.638l0,0.4zm-31.6508,32.105c-3.8048,-2.9355 -9.2779,-2.2229 -12.2059,1.5744l0.3168,0.2443c2.7931,-3.6225 8.0151,-4.3024 11.6447,-1.502l0.2444,-0.3167zm0.0058,0.0045l-0.0058,-0.0045l-0.2444,0.3167l0.0058,0.0045l0.2444,-0.3167zm1.4168,1.3726c-0.4248,-0.5153 -0.902,-0.9722 -1.4162,-1.3721l-0.2456,0.3157c0.4923,0.383 0.9481,0.8195 1.3532,1.3108l0.3086,-0.2544zm1.3622,12.0291c2.8776,-3.74 2.2432,-9.0836 -1.3898,-12.0567l-0.2534,0.3096c3.4664,2.8367 4.0713,7.9353 1.3262,11.5032l0.317,0.2439zm-0.0064,0.0083l0.0061,-0.0079l-0.3164,-0.2447l-0.0061,0.0079l0.3164,0.2447zm-1.569,1.5691c0.5854,-0.4553 1.1134,-0.9833 1.5687,-1.5687l-0.3157,-0.2456c-0.435,0.5592 -0.9394,1.0636 -1.4986,1.4986l0.2456,0.3157zm-0.0198,0.0152l0.0188,-0.0144l-0.2436,-0.3173l-0.0188,0.0144l0.2436,0.3173zm-15.5686,3.8949c5.496,0.8743 11.1244,-0.527 15.5676,-3.8941l-0.2416,-0.3188c-4.3561,3.3011 -9.8745,4.6751 -15.2632,3.8178l-0.0628,0.3951zm-1.7312,-1.729c0.1427,0.8899 0.8411,1.5874 1.7312,1.729l0.0628,-0.3951c-0.7193,-0.1144 -1.2837,-0.6781 -1.399,-1.3973l-0.395,0.0634zm3.8937,-15.5764c-3.3662,4.442 -4.7755,10.0773 -3.8937,15.5764l0.395,-0.0634c-0.8645,-5.3911 0.5172,-10.9163 3.8175,-15.2715l-0.3188,-0.2415zm0.0101,-0.0132l-0.0095,0.0125l0.3177,0.2429l0.0096,-0.0125l-0.3178,-0.2429zm0.0524,13.5452c-0.2866,-3.9217 0.8618,-7.8441 3.2561,-11.0069l-0.3189,-0.2415c-2.4532,3.2406 -3.6298,7.2593 -3.3361,11.2776l0.3989,-0.0292zm10.8142,-3.4368c-3.1612,2.3918 -7.0777,3.5355 -10.9992,3.2519l-0.0289,0.399c4.0177,0.2906 8.0303,-0.8811 11.2695,-3.3319l-0.2414,-0.319zm0.8234,-0.825c-0.2399,0.3078 -0.5183,0.5866 -0.8259,0.8269l0.2463,0.3152c0.3334,-0.2605 0.635,-0.5625 0.8951,-0.8962l-0.3155,-0.2459zm-0.8302,-6.3619c1.9831,1.5343 2.3494,4.3832 0.8293,6.3631l0.3173,0.2435c1.6544,-2.1548 1.2554,-5.254 -0.9018,-6.923l-0.2448,0.3164zm-0.3699,-0.369c0.1074,0.138 0.2316,0.262 0.3699,0.369l0.2448,-0.3164c-0.1118,-0.0864 -0.2122,-0.1866 -0.2989,-0.2982l-0.3158,0.2456zm-0.8344,-0.8288c0.3197,0.249 0.5989,0.526 0.8344,0.8288l0.3158,-0.2456c-0.2571,-0.3305 -0.5602,-0.6307 -0.9044,-0.8988l-0.2458,0.3156zm-6.3483,0.8162c1.5229,-1.9686 4.3716,-2.3389 6.3491,-0.8156l0.2441,-0.3168c-2.1524,-1.6581 -5.2519,-1.2553 -6.9096,0.8877l0.3164,0.2447z"/>
  <path id="svg_5" fill="black" d="m12.9664,12.469c-4.1253,0 -7.4646,3.3438 -7.4646,7.4646l0,7.4646l21.2459,0c1.0411,0 1.885,0.8439 1.885,1.885c0,1.041 -0.8439,1.885 -1.885,1.885l-21.2459,0l0,52.6538c0,4.121 3.3393,7.465 7.4646,7.465l39.7225,0c0.0107,0 0.0213,0 0.032,0l35.0611,0c4.125,0 7.465,-3.344 7.465,-7.465l0,-36.0892c0,-1.0411 0.843,-1.885 1.885,-1.885c1.041,0 1.885,0.8439 1.885,1.885l0,36.0892c0,6.201 -5.026,11.235 -11.235,11.235l-35.0291,0c-0.0107,0 -0.0213,0 -0.032,0l-39.7545,0c-6.2091,0 -11.2346,-5.033 -11.2346,-11.235l0,-63.8884c0,-6.2012 5.0255,-11.2346 11.2346,-11.2346l37.8036,0c1.041,0 1.885,0.8439 1.885,1.885c0,1.041 -0.844,1.885 -1.885,1.885l-37.8036,0z"/>
  <path id="svg_6" fill="black" d="m16.4912,16.88c-1.6959,0 -3.0506,1.3741 -3.0506,3.0506c0,1.6761 1.3482,3.0568 3.0506,3.0568c1.7024,0 3.0506,-1.3807 3.0506,-3.0568c0,-1.6765 -1.3547,-3.0506 -3.0506,-3.0506z"/>
  <path id="svg_7" fill="black" d="m28.1782,16.88c-1.6958,0 -3.0506,1.3741 -3.0506,3.0506c0,1.6761 1.3482,3.0568 3.0506,3.0568c1.7024,0 3.0506,-1.3806 3.0506,-3.0568c0,-1.6765 -1.3547,-3.0506 -3.0506,-3.0506z"/>
  <path id="svg_8" fill="black" d="m39.8652,16.88c-1.6959,0 -3.0506,1.3741 -3.0506,3.0506c0,1.6761 1.3482,3.0568 3.0506,3.0568c1.7024,0 3.0506,-1.3806 3.0506,-3.0568c0,-1.6765 -1.3547,-3.0506 -3.0506,-3.0506z"/>
 </g>
</svg>