<svg width="60" height="60" viewBox="0 0 60 60" fill="none" xmlns="http://www.w3.org/2000/svg">
<path d="M17.2695 54.7271L5.27338 42.7309C-1.75779 35.6996 -1.75779 24.3 5.27338 17.2695L17.2695 5.27405C24.3007 -1.75802 35.6993 -1.75802 42.7305 5.27405L54.7266 17.2695C61.7578 24.3 61.7578 35.6996 54.7266 42.7309L42.7305 54.7271C35.6993 61.7576 24.3007 61.7576 17.2695 54.7271Z" fill="#0152AD"/>
<path d="M32.8758 42.3709H27.2585C24.0818 42.3709 21.5066 39.7964 21.5066 36.6189V24.5167C21.5066 21.34 24.0818 18.7655 27.2585 18.7655H32.8758C36.0517 18.7655 38.6277 21.34 38.6277 24.5167V36.6189C38.6277 39.7964 36.0517 42.3709 32.8758 42.3709Z" stroke="white" stroke-width="1.303" stroke-miterlimit="10"/>
<path d="M34.8812 42.3709H28.8848L38.6266 32.8886V38.6262C38.6266 40.6949 36.9507 42.3709 34.8812 42.3709Z" stroke="white" stroke-width="1.303" stroke-miterlimit="10"/>
<path d="M26.176 24.2132H34.218" stroke="white" stroke-width="1.303" stroke-linecap="round" stroke-linejoin="round"/>
<path d="M26.176 27.5851H34.218" stroke="white" stroke-width="1.303" stroke-linecap="round" stroke-linejoin="round"/>
<path d="M26.176 30.9577H34.218" stroke="white" stroke-width="1.303" stroke-linecap="round" stroke-linejoin="round"/>
<path d="M34.5576 19.543C34.5576 21.8199 36.4023 23.6655 38.68 23.6655C40.9569 23.6655 42.8024 21.8199 42.8024 19.543C42.8024 17.2661 40.9569 15.4189 38.68 15.4189C36.4023 15.4189 34.5576 17.2661 34.5576 19.543Z" fill="#0152AD"/>
<path d="M34.5576 19.543C34.5576 21.8199 36.4023 23.6655 38.68 23.6655C40.9569 23.6655 42.8024 21.8199 42.8024 19.543C42.8024 17.2661 40.9569 15.4189 38.68 15.4189C36.4023 15.4189 34.5576 17.2661 34.5576 19.543Z" stroke="white" stroke-width="1.07123" stroke-miterlimit="10"/>
<path d="M36.9021 20.0154L37.6788 20.8789C37.7593 20.9666 37.8962 20.9675 37.9794 20.8833L40.7104 18.096" stroke="white" stroke-width="1.26376" stroke-miterlimit="10" stroke-linecap="round"/>
</svg>
